<svg width="527" height="517" viewBox="0 0 527 517" fill="none" xmlns="http://www.w3.org/2000/svg">
<path d="M9.24998 516.75H516.75C521.578 516.75 525.5 512.828 525.5 508V473C525.5 468.172 521.578 464.25 516.75 464.25H463.375L450.418 341.16L464.758 362.668L468.309 380.457C470.024 389.031 475.414 396.328 483.106 400.504C487.465 402.867 492.25 404.055 497.063 404.055C500.746 404.055 504.449 403.355 507.973 401.945C515.567 398.91 521.586 392.785 524.5 385.136C527.406 377.488 526.976 368.913 523.32 361.589L515.832 346.601C515.804 346.539 515.754 346.504 515.719 346.453C515.703 346.41 515.703 346.367 515.683 346.32L463.183 250.07C462.211 248.285 460.636 246.894 458.758 246.133L435.047 236.648C452.84 222.195 464.25 200.16 464.25 175.503C464.25 162.315 460.777 149.331 454.39 137.71L449.875 92.5422C463.961 86.5774 473 74.8622 473 61.7532C473 42.9132 454.301 27.5072 430.973 26.7802C421.672 10.6352 404.426 0.503174 385.5 0.503174C366.574 0.503174 349.328 10.6362 340.027 26.7802C316.699 27.5067 298 42.9132 298 61.7532C298 74.8622 307.039 86.5772 321.125 92.5462L316.609 137.714C310.222 149.331 306.75 162.316 306.75 175.503C306.75 200.159 318.16 222.194 335.965 236.64L312.254 246.125C310.855 246.683 309.621 247.605 308.675 248.785L279.144 285.703L243.46 257.16L233.933 241.277C232.316 238.574 230.25 236.281 228.019 234.191L228.015 210.503C228.015 199.112 220.675 189.487 210.515 185.862V149.253H219.265C233.738 149.253 245.515 137.476 245.515 123.003V70.5029C245.515 56.0299 233.738 44.2529 219.265 44.2529H184.265C169.792 44.2529 158.015 56.0299 158.015 70.5029V123.003C158.015 137.476 169.792 149.253 184.265 149.253H193.015V185.862C182.855 189.483 175.515 199.108 175.515 210.503V245.503V245.538C173.328 250.745 172.347 256.425 173.058 262.233C174.308 272.358 180.043 281.178 188.781 286.428L205.336 296.358L263.508 347.256C273.282 355.795 287.606 355.978 297.598 347.658L322.055 327.271L307.625 464.251H154.655L164.921 443.724C181.3 437.396 192.999 421.587 192.999 403.001V383.892C203.159 380.271 210.499 370.646 210.499 359.251C210.499 344.778 198.722 333.001 184.249 333.001H26.7491C12.2761 333.001 0.499146 344.778 0.499146 359.251C0.499146 370.642 7.83895 380.267 17.9991 383.892V403.001C17.9991 421.587 29.6981 437.396 46.0771 443.724L56.3431 464.251H9.24915C4.42105 464.251 0.499146 468.173 0.499146 473.001V508.001C0.499146 512.829 4.42105 516.751 9.24915 516.751L9.24998 516.75ZM228 70.4999V123C228 127.82 224.07 131.75 219.25 131.75H210.5V61.7499H219.25C224.07 61.7499 228 65.6796 228 70.4999ZM184.25 131.75C179.43 131.75 175.5 127.82 175.5 123V70.4999C175.5 65.6796 179.43 61.7499 184.25 61.7499H193V131.75H184.25ZM357.25 248.96C357.602 249.093 357.957 249.186 358.309 249.311C360.066 249.96 361.836 250.581 363.644 251.104C364.336 251.308 365.035 251.464 365.727 251.64C367.398 252.077 369.07 252.499 370.773 252.819C371.633 252.987 372.496 253.081 373.355 253.214C374.937 253.46 376.516 253.722 378.125 253.878C379.254 253.983 380.391 253.991 381.519 254.054C382.855 254.12 384.156 254.253 385.496 254.253C386.836 254.253 388.137 254.12 389.469 254.05C390.605 253.987 391.734 253.98 392.863 253.874C394.473 253.726 396.047 253.464 397.633 253.21C398.492 253.077 399.355 252.983 400.215 252.815C401.922 252.491 403.594 252.062 405.262 251.636C405.953 251.452 406.652 251.304 407.344 251.101C409.156 250.577 410.93 249.964 412.68 249.308C413.031 249.175 413.387 249.089 413.738 248.956L426.648 298.003H344.355L357.25 248.96ZM508.14 378.91C506.949 382.035 504.577 384.449 501.472 385.691C498.206 386.996 494.542 386.785 491.445 385.105C488.347 383.425 486.16 380.476 485.468 377.019L483.211 365.722L503.309 360.699L507.656 369.406C509.156 372.398 509.332 375.777 508.141 378.91L508.14 378.91ZM494.894 344.758L476.851 349.266L446.085 303.118L433.382 254.837L449.323 261.216L494.894 344.758ZM315.494 61.7579C315.494 52.2735 327.517 44.2579 341.744 44.2579C342.252 44.2579 342.732 44.3204 343.224 44.3712L344.635 44.504C348.318 44.7228 351.853 42.6681 353.342 39.2267C358.869 26.3357 371.494 18.0077 385.494 18.0077C399.494 18.0077 412.119 26.3358 417.658 39.2267C419.138 42.6642 422.724 44.7931 426.365 44.504L427.775 44.3712C428.255 44.3204 428.736 44.2579 429.244 44.2579C443.471 44.2579 455.494 52.2735 455.494 61.7579C455.494 68.7501 448.423 75.4339 438.299 78.0239C434.107 79.0903 431.326 83.063 431.752 87.3677L437.076 140.509H333.916L339.228 87.3797C339.658 83.075 336.873 79.1024 332.682 78.0359C322.569 75.4343 315.498 68.7507 315.498 61.7589L315.494 61.7579ZM324.244 175.508C324.244 169.574 325.127 163.68 326.826 158.008H444.156C445.863 163.68 446.746 169.574 446.746 175.508C446.746 199.797 432.492 220.774 411.949 230.668C409.964 231.621 407.933 232.469 405.875 233.195C405.777 233.23 405.683 233.266 405.586 233.301C392.547 237.859 378.426 237.859 365.387 233.301C365.289 233.266 365.195 233.23 365.097 233.195C363.043 232.469 361.019 231.621 359.023 230.668C338.5 220.773 324.246 199.797 324.246 175.508H324.244ZM192.994 210.508C192.994 205.688 196.924 201.758 201.744 201.758C206.564 201.758 210.494 205.688 210.494 210.508V225.715C210.443 225.707 210.381 225.707 210.326 225.699C210.115 225.672 209.931 225.578 209.721 225.551C209.24 225.488 208.767 225.578 208.295 225.535C206.771 225.414 205.267 225.395 203.744 225.484C202.982 225.527 202.228 225.527 201.486 225.625C199.685 225.852 197.924 226.274 196.185 226.797C195.443 227.024 194.724 227.262 193.998 227.531C193.666 227.652 193.326 227.734 193.002 227.863V210.508L192.994 210.508ZM190.412 260.094C190.025 257.004 190.666 253.985 192.029 251.301C192.064 251.231 192.127 251.188 192.162 251.117C192.537 250.399 192.916 249.789 193.299 249.219C193.771 248.563 194.236 247.899 194.814 247.321C196.041 246.086 197.467 245.149 198.963 244.426C199.084 244.364 199.209 244.285 199.33 244.223C200.826 243.551 202.42 243.129 204.045 242.961C204.166 242.953 204.279 242.934 204.404 242.926C205.986 242.793 207.588 242.934 209.166 243.293C209.334 243.328 209.498 243.364 209.654 243.407C211.291 243.844 212.885 244.516 214.345 245.516C214.388 245.543 214.443 245.559 214.486 245.586C216.244 246.813 217.775 248.379 218.924 250.285L225.74 261.652L209.15 278.242L197.783 271.426C193.677 268.965 190.99 264.836 190.412 260.094L190.412 260.094ZM286.373 334.215C283.049 336.981 278.264 336.938 275.006 334.082L223.283 288.828L237.381 274.73L275.014 304.839C278.776 307.859 284.287 307.253 287.307 303.476L320.862 261.527L337.585 254.843L325.222 301.839L286.373 334.215ZM340.869 315.508H430.119L445.783 464.258H325.213L340.869 315.508ZM143.839 446.758L135.089 464.258H114.245V446.758H143.839ZM26.749 350.508H184.249C189.069 350.508 192.999 354.438 192.999 359.258C192.999 364.078 189.069 368.008 184.249 368.008H26.749C21.9287 368.008 17.999 364.078 17.999 359.258C17.999 354.438 21.9287 350.508 26.749 350.508ZM35.499 403.008V385.508H175.499V403.008C175.499 417.481 163.722 429.258 149.249 429.258H61.749C47.276 429.258 35.499 417.481 35.499 403.008ZM67.155 446.758H96.749V464.258H75.905L67.155 446.758ZM17.999 481.758H507.999V499.258H17.999V481.758Z" fill="black"/>
</svg>
