<svg width="490" height="452" viewBox="0 0 490 452" fill="none" xmlns="http://www.w3.org/2000/svg">
<path fill-rule="evenodd" clip-rule="evenodd" d="M225.565 49C225.565 22.523 247.213 0.875 273.69 0.875C300.167 0.875 321.815 22.527 321.815 49C321.815 75.477 300.167 97.125 273.69 97.125C247.213 97.125 225.565 75.477 225.565 49ZM304.315 49C304.315 31.984 290.706 18.375 273.69 18.375C256.674 18.375 243.065 31.984 243.065 49C243.065 66.016 256.674 79.625 273.69 79.625C290.706 79.625 304.315 66.016 304.315 49ZM227.582 119.578C237.317 113.496 248.543 110.25 260.02 110.25L279.985 110.257C304.04 110.257 323.7 129.952 323.7 154.007V270.347C323.696 284.812 326.457 299.163 331.832 312.593L375.054 420.573L490 433.89V451.495L0 394.725V377.12L113.77 390.301V223.99H131.27V392.329L185.719 398.637L170.812 336.102C167.429 321.895 171.401 306.918 181.339 296.215L216.101 258.758C220.609 253.903 223.14 247.512 223.14 240.883V186.049L183.867 209.613C182.503 210.422 180.945 210.844 179.355 210.836H122.48C108.089 210.836 96.2649 199.008 96.2649 184.621V180.246C96.2649 165.855 108.089 153.996 122.48 153.996H172.484L227.582 119.578ZM230.256 403.797L204.221 400.781L187.835 332.071C185.8 323.528 188.183 314.544 194.159 308.11L228.952 270.649C236.464 262.559 240.643 251.922 240.643 240.879V175.548L249.492 170.238C253.636 167.746 254.976 162.367 252.484 158.226C249.992 154.082 244.613 152.742 240.468 155.234L176.929 193.343H122.48C117.546 193.343 113.765 189.558 113.765 184.628V180.253C113.765 175.324 117.546 171.503 122.48 171.503H174.98C176.624 171.503 178.234 171.042 179.628 170.171L236.847 134.417C243.8 130.074 251.824 127.753 260.023 127.753H279.984C294.582 127.753 306.199 139.409 306.199 154.003V270.343C306.199 287.034 309.398 303.585 315.598 319.085L355.271 418.281L319.222 414.104L267.324 310.309L281.829 295.804C284.404 293.288 285.173 289.449 283.767 286.136C282.365 282.82 279.072 280.702 275.47 280.8C273.201 280.863 271.044 281.808 269.454 283.433L246.5 306.387L245.938 306.668L246.032 306.856L234.216 318.671C224.126 328.761 219.568 343.175 222.048 357.226L230.256 403.797ZM254.28 323.353L246.591 331.042C240.525 337.105 237.783 345.734 239.275 354.179L248.422 405.902L298.453 411.698L254.28 323.353ZM113.77 127.75V145.25H131.27V127.75H113.77ZM350.02 127.75C345.188 127.75 341.27 131.668 341.27 136.5V285.25C341.27 290.082 345.188 294 350.02 294H398.145C412.54 294 424.395 282.145 424.395 267.75V183.125C424.395 176.75 422.579 170.52 419.2 165.113L419.473 165.551L401.461 132.328C399.93 129.503 396.977 127.746 393.77 127.746L350.02 127.75ZM358.77 145.25H388.575L404.095 173.926C404.181 174.075 404.271 174.219 404.365 174.364C406.005 176.989 406.892 180.012 406.892 183.114V267.739C406.892 272.676 403.079 276.489 398.142 276.489H358.767L358.77 145.25ZM343.827 99.624C345.503 97.9795 347.772 97.0772 350.12 97.1201H402.382C404.73 97.0771 406.999 97.9795 408.675 99.624C410.351 101.269 411.296 103.519 411.296 105.87C411.296 108.218 410.351 110.468 408.675 112.116C406.999 113.761 404.73 114.663 402.382 114.62H350.12C347.772 114.663 345.503 113.761 343.827 112.116C342.151 110.468 341.206 108.218 341.206 105.87C341.206 103.519 342.151 101.269 343.827 99.624Z" fill="black"/>
</svg>
