<svg width="561" height="560" viewBox="0 0 561 560" fill="none" xmlns="http://www.w3.org/2000/svg">
<path d="M473.67 266C516.834 179.668 548.334 87.5001 560.002 12.8301C561.17 8.16212 557.67 2.33012 553.002 -0.00187889C548.334 -1.16988 542.502 -0.00187898 539.002 3.49812C486.502 62.9981 434.002 153.998 393.172 248.498C375.672 246.166 358.172 243.83 352.34 239.166C334.84 226.334 338.34 200.666 345.34 160.998C355.84 108.498 367.508 43.1681 292.84 9.32812C206.504 -30.3359 93.3401 61.8281 51.3401 118.998C-37.3239 243.828 -8.15994 417.668 116.676 506.328C166.844 542.496 225.176 559.996 283.506 559.996C346.506 559.996 409.506 538.996 457.336 496.996C487.668 470.164 511.004 435.164 523.836 394.326C535.504 359.326 534.336 328.994 522.668 306.826C513.336 289.326 497.004 275.326 473.672 265.994L473.67 266ZM527.334 57.1701C505.166 147.002 459.666 255.5 403.664 346.5L385 337.168C418.832 236.828 472.5 131.828 527.33 57.1681L527.334 57.1701ZM397.834 368.67C396.666 383.838 389.666 407.17 386.166 415.338C382.666 423.506 358.166 448.006 335.998 470.17C338.33 438.67 341.83 404.838 345.33 396.67C348.83 389.67 362.83 368.67 373.33 358.17L386.162 364.002L397.834 368.67ZM501.674 387.334C490.006 423.502 470.174 456.166 442.174 479.502C358.174 553.002 226.344 556.502 130.674 488.834C16.3341 406.002 -10.4959 247.334 70.0061 133.004C108.506 79.3361 213.506 -1.16588 284.676 30.3341C343.008 56.0021 333.676 105.002 323.176 155.164C316.176 194.832 308.008 234.496 339.508 257.834C348.84 264.834 365.176 268.334 385.008 270.666C376.84 291.666 368.676 313.834 361.676 334.834C346.508 346.502 327.844 375.666 323.176 386.166C315.008 404.834 311.508 481.834 310.344 498.166C310.344 502.834 312.676 507.498 317.344 508.666C322.012 510.998 325.512 509.834 330.176 506.334C341.844 495.834 399.008 443.334 407.176 424.666C411.844 415.334 422.344 381.498 421.176 362.834C436.344 338.334 450.344 312.666 464.344 287.002C483.012 294.002 495.844 304.502 502.844 317.334C511.008 333.67 509.84 357.002 501.676 387.334H501.674Z" fill="black"/>
<path d="M229.83 57.1682C200.662 57.1682 176.162 80.5002 176.162 110.836C176.162 141.168 199.494 164.504 229.83 164.504C258.998 164.504 283.498 141.172 283.498 110.836C283.498 80.5002 260.166 57.1682 229.83 57.1682V57.1682ZM229.83 141.168C213.498 141.168 199.498 128.336 199.498 110.836C199.498 93.3362 212.33 80.5042 229.83 80.5042C246.162 80.5042 260.162 93.3362 260.162 110.836C260.166 128.332 247.33 141.168 229.83 141.168Z" fill="black"/>
<path d="M179.67 250.83C179.67 221.662 156.338 197.162 126.002 197.162C96.834 197.162 72.334 220.494 72.334 250.83C72.334 281.162 95.666 304.498 126.002 304.498C156.334 304.498 179.67 279.998 179.67 250.83V250.83ZM96.834 250.83C96.834 234.498 109.666 220.498 127.166 220.498C143.498 220.498 157.498 233.33 157.498 250.83C157.498 267.162 144.666 281.162 127.166 281.162C109.67 281.166 96.834 267.166 96.834 250.83V250.83Z" fill="black"/>
<path d="M164.5 333.67C135.332 333.67 110.832 357.002 110.832 387.338C110.832 416.506 134.164 441.006 164.5 441.006C194.832 441.006 218.168 417.674 218.168 387.338C217 358.17 193.668 333.67 164.5 333.67ZM164.5 417.67C148.168 417.67 134.168 404.838 134.168 387.338C134.168 371.006 147 357.006 164.5 357.006C182 357.006 194.832 369.838 194.832 387.338C193.668 403.67 180.832 417.67 164.5 417.67Z" fill="black"/>
</svg>
