<svg width="322" height="390" viewBox="0 0 322 390" fill="none" xmlns="http://www.w3.org/2000/svg">
<path d="M171.08 60.4099L165.232 94.8049L195.642 89.9494L207.572 54.5864L260.31 46.1645L260.877 42.0551C262.244 32.1293 248.455 26.7231 243.924 24.9461C236.518 22.0399 227.705 19.9969 227.705 19.9969L197.252 24.8602L161.588 0.407227L133.639 4.87202L156.401 31.388L138.663 34.22L118.448 18.923L90.4248 23.3996L113.941 69.5476L171.08 60.4099ZM187.193 79.9529L178.892 81.2771L182.756 58.5431L195.076 56.5743L187.193 79.9529ZM155.181 12.7579L158.939 12.1564L181.189 27.4104L169.384 29.2971L155.181 12.7579ZM115.501 30.7229L135.712 46.0199L227.278 31.3949C229.177 31.8715 233.45 33.016 237.934 34.6449C240.649 35.6332 242.754 36.5433 244.387 37.3558L120.227 57.1918L107.399 32.0198L115.501 30.7229Z" fill="black"/>
<path d="M21.7699 269.82L11.2739 273.73C12.6098 277.32 14.0864 280.914 15.6528 284.41L25.8718 279.824C24.403 276.547 23.0202 273.18 21.7702 269.82L21.7699 269.82Z" fill="black"/>
<path d="M11.29 211.42C11.29 209.643 11.3173 207.838 11.3759 206.061L0.180908 205.709C0.122314 207.603 0.0910645 209.525 0.0910645 211.42C0.0910645 213.361 0.122314 215.326 0.184814 217.26L11.3798 216.9C11.3212 215.084 11.29 213.244 11.29 211.42V211.42Z" fill="black"/>
<path d="M12.0799 227.71L0.931885 228.788C1.30297 232.612 1.79907 236.468 2.41238 240.249L13.4674 238.452C12.8932 234.905 12.4244 231.292 12.0807 227.71L12.0799 227.71Z" fill="black"/>
<path d="M30.6201 289.54L20.7217 294.778C22.5147 298.165 24.4405 301.536 26.4522 304.805L35.9913 298.938C34.1085 295.875 32.2999 292.711 30.6202 289.54L30.6201 289.54Z" fill="black"/>
<path d="M41.9599 307.97L32.8193 314.443C35.0341 317.568 37.3818 320.665 39.7959 323.65L48.499 316.603C46.2373 313.806 44.0342 310.904 41.9599 307.97Z" fill="black"/>
<path d="M25.8401 143.11L15.6211 138.528C14.0508 142.036 12.5742 145.641 11.2344 149.243L21.7304 153.145C22.9843 149.77 24.3671 146.395 25.8398 143.11L25.8401 143.11Z" fill="black"/>
<path d="M48.48 106.26L39.7769 99.2131C37.3628 102.198 35.0113 105.299 32.7964 108.428L41.937 114.901C44.0112 111.967 46.2143 109.057 48.48 106.26Z" fill="black"/>
<path d="M35.96 123.95L26.4209 118.083C24.4092 121.356 22.4795 124.735 20.6826 128.13L30.5849 133.364C32.2646 130.184 34.0732 127.016 35.9599 123.95L35.96 123.95Z" fill="black"/>
<path d="M63.17 90.3399L55.4434 82.2344C52.6661 84.8828 49.9395 87.6563 47.3379 90.4727L55.5723 98.0665C58.0098 95.422 60.5684 92.8243 63.17 90.3399Z" fill="black"/>
<path d="M18.29 163.41L7.56004 160.199C6.46234 163.875 5.47024 167.633 4.61084 171.375L15.5288 173.879C16.3335 170.375 17.2593 166.852 18.2905 163.41H18.29Z" fill="black"/>
<path d="M55.5799 324.8L47.3494 332.394C49.951 335.214 52.6775 337.983 55.4549 340.632L63.1815 332.523C60.576 330.042 58.0174 327.441 55.5799 324.8Z" fill="black"/>
<path d="M13.4501 184.51L2.39507 182.725C1.78179 186.51 1.28566 190.365 0.922363 194.186L12.0704 195.256C12.4102 191.67 12.8751 188.057 13.4493 184.51L13.4501 184.51Z" fill="black"/>
<path d="M15.55 249.08L4.63599 251.592C5.49537 255.33 6.49149 259.092 7.59299 262.768L18.32 259.549C17.2888 256.104 16.3552 252.58 15.5505 249.08L15.55 249.08Z" fill="black"/>
<path d="M124.54 381.55C128.196 382.71 131.938 383.765 135.669 384.683L138.353 373.808C134.86 372.948 131.353 371.96 127.931 370.874L124.54 381.55Z" fill="black"/>
<path d="M79.7701 76.44L73.149 67.4048C70.0592 69.6704 66.9967 72.0689 64.0552 74.5337L71.2466 83.1196C74.0083 80.811 76.8755 78.561 79.77 76.4399L79.7701 76.44Z" fill="black"/>
<path d="M170.46 378.48L169.929 389.668C172.784 389.805 175.687 389.871 178.554 389.871C179.53 389.871 180.507 389.863 181.48 389.848L181.3 378.649C177.702 378.707 174.05 378.649 170.46 378.481L170.46 378.48Z" fill="black"/>
<path d="M146.97 387.09C150.739 387.762 154.587 388.324 158.408 388.75L159.658 377.621C156.08 377.219 152.474 376.695 148.939 376.062L146.97 387.09Z" fill="black"/>
<path d="M64.0701 348.33C67.0154 350.791 70.074 353.193 73.1717 355.459L79.7928 346.424C76.8905 344.299 74.0194 342.049 71.2616 339.74L64.0701 348.33Z" fill="black"/>
<path d="M98.02 64.7998L92.6177 54.9873C89.2622 56.835 85.9224 58.8154 82.688 60.8818L88.7114 70.3232C91.7426 68.3896 94.8755 66.5302 98.02 64.7998V64.7998Z" fill="black"/>
<path d="M102.98 373.13C106.464 374.759 110.042 376.294 113.617 377.693L117.691 367.259C114.343 365.95 110.988 364.512 107.726 362.985L102.98 373.13Z" fill="black"/>
<path d="M82.72 361.99C85.9583 364.056 89.3059 366.041 92.6692 367.888L98.0676 358.076C94.9153 356.341 91.7785 354.482 88.7434 352.545L82.72 361.99Z" fill="black"/>
<path d="M145.34 220.2C146.371 221.54 148.785 223.794 153.367 223.794C164.656 223.794 186.543 208.864 197.844 189.614C203.458 180.047 207.723 180.047 209.77 180.047C212.032 180.047 214.634 180.66 217.391 181.309C220.802 182.11 224.665 183.02 228.883 183.02C232.778 183.02 236.383 182.258 239.903 180.696C245.45 178.231 249.087 174.785 250.704 170.454C253.388 163.274 249.888 155.79 246.798 149.188C245.201 145.77 243.689 142.543 243.115 139.734C241.79 133.254 237.38 125.527 223.896 125.527C219.657 125.527 215.294 126.254 211.447 126.895L211.232 126.93C210.493 127.051 209.841 127.113 209.283 127.113C208.392 127.113 208.083 126.953 208.076 126.953C207.486 126.391 207.036 123.426 206.771 121.652C206.677 121.027 206.579 120.399 206.474 119.77C205.22 112.25 202.06 104.352 188.13 102.805C187.423 102.727 186.712 102.688 186.017 102.688C176.689 102.688 170.122 109.223 158.205 121.089C154.584 124.695 150.482 128.777 145.576 133.425C136.275 142.234 132.81 149.636 134.982 156.042C136.622 160.878 140.911 163.261 144.306 164.421C145.282 173.695 147.325 197.562 144.017 209.968C142.9 214.164 143.345 217.601 145.341 220.198L145.34 220.2ZM145.59 152.454C145.582 152.426 145.051 149.36 153.278 141.563C158.285 136.817 162.442 132.684 166.106 129.032C175.91 119.27 181.309 113.891 186.016 113.891C186.301 113.891 186.59 113.906 186.891 113.942C193.984 114.731 194.633 116.863 195.426 121.617C195.523 122.196 195.609 122.77 195.695 123.34C196.488 128.574 197.969 138.317 209.281 138.317C210.453 138.317 211.727 138.204 213.07 137.981L213.289 137.946C216.875 137.348 220.586 136.731 223.898 136.731C230.523 136.731 231.578 139.216 232.144 141.981C232.984 146.087 234.851 150.075 236.652 153.934C238.91 158.766 241.25 163.762 240.211 166.536C239.687 167.942 238.05 169.263 235.355 170.462C233.269 171.392 231.211 171.821 228.882 171.821C225.964 171.821 223.046 171.134 219.957 170.407C216.699 169.642 213.332 168.849 209.769 168.849C201.089 168.849 194.23 173.646 188.183 183.943C179.194 199.252 162.316 210.752 154.96 212.392C159.471 194.595 155.167 160.63 154.979 159.181L154.448 154.794L150.046 154.329C148.026 154.095 145.788 153.056 145.589 152.454L145.59 152.454Z" fill="black"/>
<path d="M84.9401 214.11L83.444 212.743L81.4517 212.606C81.4517 212.606 81.0416 212.579 80.3111 212.579C69.1591 212.579 56.1862 217.872 53.2172 232.724C49.643 250.603 57.3382 257.662 71.3151 270.474C73.2018 272.204 75.155 273.993 77.28 275.985C80.4089 278.919 82.7995 281.321 84.7175 283.255C94.4948 293.091 96.1704 293.384 115.158 294.142C116.342 294.189 117.608 294.239 118.955 294.294C120.959 294.376 122.69 294.419 124.244 294.419C130.963 294.419 135.666 293.724 138.357 290.263C141.018 286.841 140.022 282.931 139.221 279.786C138.397 276.544 137.459 272.872 139.061 268.067C140.498 263.758 140.271 259.961 138.393 256.782C134.83 250.751 126.971 249.309 117.873 247.641C109.939 246.184 100.947 244.536 95.5606 239.719C93.6231 237.989 92.7208 236.891 92.3106 236.301C92.3262 236.274 92.3418 236.251 92.3575 236.227C96.8223 229.368 94.8106 223.372 84.9395 214.11L84.9401 214.11ZM115.854 258.661C120.315 259.481 127.784 260.848 128.752 262.485C128.799 262.563 128.889 263.176 128.436 264.528C125.795 272.45 127.404 278.774 128.365 282.551C128.404 282.707 128.447 282.871 128.49 283.039C127.565 283.137 126.209 283.219 124.24 283.219C122.842 283.219 121.264 283.184 119.42 283.106C118.065 283.051 116.795 283 115.604 282.95C107.318 282.617 102.756 282.434 100.198 281.551C98.182 280.852 96.7796 279.508 92.6546 275.356C90.6741 273.364 88.2093 270.883 84.9319 267.813C82.76 265.778 80.6975 263.883 78.8772 262.215C64.8302 249.332 61.9322 246.215 64.1932 234.914C65.9979 225.887 74.1854 224.09 78.8612 223.816C82.2948 227.254 83.1424 228.961 83.3456 229.519C83.2402 229.699 83.0839 229.933 82.9628 230.125C79.0605 236.129 80.5448 241.328 88.0917 248.074C95.8339 254.984 106.936 257.023 115.854 258.66L115.854 258.661Z" fill="black"/>
<path d="M279.92 110.05C261.561 91.6909 239.1 78.9329 214.604 72.6159L210.502 83.1749C241.717 90.9561 268.572 109.863 286.604 135.417C285.444 142.05 281.839 161.601 277.397 174.929C274.061 184.933 265.67 187.292 258.264 189.378C255.635 190.116 253.151 190.815 251.085 191.851C241.838 196.476 220.636 209.035 223.425 225.781C224.218 230.546 226.315 233.745 229.651 235.296C235.753 238.128 242.698 233.992 250.741 229.206C254.249 227.117 257.878 224.956 261.522 223.288C261.573 223.265 267.217 221.953 283.014 242.995C289.952 252.238 295.998 262.05 298.666 266.518C296.276 271.706 293.561 276.713 290.545 281.514L268.733 270.342C266.76 269.21 254.042 262.014 247.03 260.788C242.534 259.999 236.823 261.952 227.87 265.206C222.112 267.296 215.585 269.667 212.155 269.667C206.089 269.667 200.147 271.96 194.975 276.296C189.502 280.885 185.217 287.441 182.241 295.784C178.327 306.737 177.55 306.956 164.55 310.577C162.601 311.119 160.394 311.733 157.937 312.455C144.074 316.534 137.773 327.607 135.476 336.369C83.6908 318.463 46.3978 269.221 46.3978 211.429C46.3978 197.046 48.7103 183.191 52.9759 170.218C58.7259 173.211 67.4719 176.984 74.9879 176.984C76.3668 176.984 77.7027 176.855 78.9723 176.574C87.1207 174.765 114.074 167.867 118.839 155.152C120.788 149.953 121.39 143.019 121.976 136.312C122.496 130.355 123.031 124.195 124.441 120.433C126.738 114.304 134.472 107.156 137.257 104.917L139.358 103.237V85.2142C145.108 83.4251 151.022 82.015 157.077 81.0189L158.679 69.4329C127.925 73.6751 99.519 87.7219 77.187 110.054C50.109 137.132 35.199 173.132 35.199 211.424C35.199 249.716 50.109 285.717 77.187 312.794C104.265 339.871 140.265 354.782 178.557 354.782C216.85 354.782 252.85 339.868 279.927 312.794C307.005 285.716 321.915 249.716 321.915 211.424C321.907 173.127 306.997 137.127 279.919 110.044L279.92 110.05ZM128.15 89.2649V97.9524C124.392 101.281 116.904 108.612 113.947 116.495C111.998 121.695 111.396 128.628 110.81 135.335C110.291 141.292 109.755 147.452 108.345 151.214C106.716 155.562 92.1464 162.163 76.5334 165.636C72.1467 166.609 63.5414 163.211 56.9554 159.656C70.5294 127.89 96.2054 102.492 128.15 89.2649H128.15ZM292.03 236.345C277.046 216.365 265.87 208.982 256.862 213.103C252.67 215.021 248.604 217.443 245.014 219.58C241.733 221.533 236.963 224.373 234.69 224.919C234.62 224.677 234.545 224.353 234.475 223.939C233.198 216.267 245.323 207.255 256.096 201.869C257.213 201.31 259.202 200.752 261.303 200.158C269.35 197.892 282.815 194.103 288.026 178.47C290.991 169.579 293.542 158.404 295.335 149.591C305.147 168.048 310.714 189.095 310.714 211.419C310.714 226.138 308.292 240.306 303.831 253.54C300.698 248.606 296.581 242.411 292.03 236.345L292.03 236.345ZM178.55 343.575C167.402 343.575 156.573 342.18 146.226 339.571C147.456 334.43 150.984 326.161 161.093 323.188C163.472 322.489 165.64 321.883 167.55 321.352C182.269 317.254 187.191 315.212 192.788 299.54C197.71 285.763 206.018 280.856 212.155 280.856C217.557 280.856 224.741 278.247 231.694 275.723C236.249 274.071 243.135 271.571 245.104 271.813C249.053 272.505 258.334 277.266 263.26 280.106L284.143 290.809C259.995 322.832 221.651 343.575 178.553 343.575L178.55 343.575Z" fill="black"/>
</svg>
