<svg width="526" height="496" viewBox="0 0 526 496" fill="none" xmlns="http://www.w3.org/2000/svg">
<path d="M263 174.36C272.648 174.364 281.898 170.532 288.719 163.708C295.543 156.888 299.375 147.638 299.375 137.989C299.375 128.34 295.543 119.091 288.719 112.27C281.899 105.45 272.649 101.618 263 101.618C253.351 101.618 244.102 105.45 237.281 112.27C230.46 119.09 226.629 128.344 226.629 137.989C226.641 147.634 230.477 156.88 237.293 163.696C244.113 170.516 253.355 174.352 263 174.36ZM263 110.223C270.363 110.223 277.426 113.149 282.633 118.356C287.84 123.563 290.766 130.626 290.766 137.989C290.766 145.352 287.844 152.415 282.637 157.622C277.43 162.833 270.367 165.759 263.004 165.759C255.637 165.759 248.574 162.833 243.367 157.626C238.16 152.419 235.234 145.356 235.234 137.993C235.242 130.629 238.168 123.571 243.375 118.368C248.582 113.161 255.637 110.231 263 110.223L263 110.223ZM509.51 44.442H491.072V31.254C491.064 24.129 485.287 18.352 478.162 18.344H462.182V13.8674C462.174 6.74243 456.397 0.969426 449.272 0.961426H420.374C413.249 0.969239 407.472 6.74263 407.468 13.8674V44.4224H364.12C362.858 39.4615 359.452 35.3286 354.823 33.1454C350.198 30.9657 344.839 30.9657 340.214 33.1454C335.585 35.329 332.175 39.4618 330.917 44.4224H195.087C193.829 39.4654 190.419 35.3286 185.79 33.1494C181.165 30.9658 175.806 30.9658 171.181 33.1494C166.556 35.3291 163.146 39.4658 161.884 44.4224H118.54V13.8674C118.533 6.74243 112.755 0.969426 105.63 0.961426H76.7354C69.6104 0.965333 63.8294 6.74263 63.8214 13.8674V18.344H47.8374C40.7124 18.3518 34.9354 24.1292 34.9274 31.254V44.442H16.4934C10.7825 44.442 5.50141 47.4928 2.64541 52.4381C-0.210091 57.3873 -0.210091 63.4851 2.64541 68.4301C5.50091 73.3793 10.7821 76.4301 16.4934 76.4301H34.9274V89.6181C34.9352 96.747 40.7126 102.52 47.8374 102.528H63.8214V107.005H63.8253C63.8331 114.13 69.6065 119.907 76.7353 119.915H105.626C112.755 119.907 118.532 114.13 118.54 107.005V76.4387H161.278V164.916C161.231 189.412 172.38 212.584 191.551 227.834L207.403 240.482V469.932C207.313 475.358 209.005 480.662 212.22 485.034C215.435 489.406 219.993 492.6 225.2 494.131C233.325 496.432 242.059 494.362 248.29 488.663C252.743 484.514 255.524 478.877 256.102 472.819L263.001 397.042L269.915 472.847C270.497 478.925 273.298 484.574 277.778 488.718C282.243 492.78 288.059 495.038 294.098 495.05C296.36 495.046 298.614 494.737 300.797 494.136C306.004 492.604 310.567 489.409 313.781 485.038C317 480.667 318.691 475.358 318.602 469.933V240.483L334.461 227.831C353.633 212.581 364.781 189.409 364.738 164.917V76.4399H407.471V107.006C407.475 114.131 413.253 119.908 420.382 119.916H449.276C456.401 119.908 462.179 114.131 462.187 107.006V102.529H478.164C485.289 102.521 491.066 96.7441 491.07 89.6193V76.4313H509.508C515.222 76.4313 520.499 73.3805 523.359 68.4313C526.215 63.486 526.215 57.3883 523.359 52.4393C520.5 47.494 515.223 44.4432 509.508 44.4432L509.51 44.442ZM34.92 67.821H16.486C12.4079 67.821 9.09931 64.5163 9.09931 60.4343C9.09931 56.3562 12.4079 53.0476 16.486 53.0476H34.92V67.821ZM63.815 93.919L47.831 93.9229C45.456 93.919 43.5302 91.9932 43.5302 89.6182V31.2552C43.5302 28.8802 45.456 26.9544 47.831 26.9505H63.815V93.919ZM109.92 48.536C109.916 48.6024 109.881 48.6532 109.881 48.7235V72.1335C109.881 72.1999 109.916 72.2546 109.92 72.321V107.005C109.92 109.38 107.994 111.306 105.619 111.31H76.7242C74.3492 111.306 72.4234 109.38 72.4234 107.005V13.868C72.4234 11.493 74.3492 9.56723 76.7242 9.56723H105.619C107.994 9.56723 109.92 11.493 109.92 13.868V48.536ZM161.264 67.829H118.534V53.028H161.272L161.264 67.829ZM195.69 53.024L330.3 53.0279V67.8329L195.69 67.829V53.024ZM195.69 76.434L330.3 76.4379V165.321C330.261 173.762 326.304 181.704 319.597 186.825C312.886 191.946 304.183 193.665 296.031 191.481L275.636 186.059C275.277 185.962 274.906 185.915 274.53 185.915H251.465C251.093 185.915 250.718 185.962 250.359 186.059L230.242 191.411V191.407C227.902 192.055 225.488 192.38 223.058 192.372C215.801 192.325 208.855 189.415 203.73 184.274C198.605 179.133 195.719 172.176 195.695 164.919L195.69 76.434ZM356.12 72.1332V164.914C356.163 186.789 346.202 207.488 329.077 221.105L311.604 235.046C310.581 235.863 309.987 237.101 309.987 238.41V469.93C310.077 473.469 309.006 476.941 306.932 479.812C304.862 482.683 301.909 484.797 298.518 485.828C293.268 487.32 287.616 486.008 283.565 482.347C280.663 479.648 278.85 475.976 278.471 472.031L267.283 349.221C267.084 346.999 265.225 345.296 262.994 345.296C260.764 345.296 258.904 346.999 258.705 349.221L247.525 472.011C247.154 475.941 245.361 479.601 242.486 482.308C238.427 486.008 232.74 487.34 227.459 485.836C224.072 484.805 221.119 482.687 219.053 479.816C216.982 476.945 215.912 473.476 216.002 469.937V238.417C216.002 237.109 215.408 235.87 214.385 235.054L196.92 221.116C179.795 207.499 169.834 186.8 169.873 164.921V48.731C169.849 46.4341 170.744 44.2232 172.361 42.5904C173.978 40.9576 176.181 40.0396 178.478 40.0396C180.775 40.0396 182.978 40.9576 184.595 42.5904C186.213 44.2232 187.107 46.4342 187.088 48.731V164.941C187.119 174.476 190.92 183.613 197.654 190.363C204.392 197.113 213.521 200.929 223.056 200.98C226.251 200.992 229.435 200.57 232.513 199.718L252.025 194.527H273.966L293.814 199.8C304.544 202.675 316.005 200.41 324.834 193.664C333.663 186.918 338.861 176.457 338.908 165.348V48.7276C338.908 43.9776 342.759 40.1221 347.513 40.1221C352.267 40.1221 356.119 43.9776 356.119 48.7276L356.12 72.1332ZM407.46 67.8285H364.73V53.0275H407.464L407.46 67.8285ZM453.569 22.6485V107.004C453.569 109.379 451.643 111.304 449.268 111.308H420.37C417.995 111.304 416.069 109.379 416.069 107.004V72.3195C416.069 72.2531 416.108 72.1984 416.108 72.132L416.105 48.722C416.105 48.6556 416.069 48.6009 416.065 48.5345L416.069 13.8665C416.069 11.4915 417.995 9.56573 420.37 9.56573H449.268C451.643 9.56573 453.569 11.4915 453.569 13.8665V22.6485ZM482.464 48.7465V89.6175C482.46 91.9925 480.534 93.9183 478.159 93.9222H462.179V26.9492H478.159C480.534 26.9531 482.46 28.8789 482.46 31.2539L482.464 48.7465ZM509.507 67.8205H491.069V53.0475H509.507C513.585 53.0475 516.894 56.3561 516.894 60.4342C516.894 64.5162 513.585 67.8209 509.507 67.8209V67.8205Z" fill="black"/>
</svg>
