<svg width="366" height="430" viewBox="0 0 366 430" fill="none" xmlns="http://www.w3.org/2000/svg">
<path d="M184.64 167.97C186.007 166.056 188.742 165.509 190.656 166.876C192.57 168.243 193.116 170.978 191.749 172.892C186.281 180.548 173.429 186.29 158.663 190.119C137.061 195.861 110.811 198.595 97.9603 198.869C95.2259 198.869 92.4915 199.142 90.0306 199.689C87.2962 200.236 84.8353 200.783 82.3744 201.603C73.6244 204.338 64.3274 205.431 55.3044 205.431C46.5544 205.431 37.8044 204.611 29.6014 203.517C28.2342 203.244 20.578 203.517 14.5624 204.611C23.039 207.619 27.6874 207.892 34.2504 208.439C36.4379 208.439 38.6254 208.712 40.5395 208.986C51.4775 210.08 91.6725 203.791 97.1415 202.97C98.2353 202.697 98.5087 202.697 99.6024 202.97H99.8759C119.564 208.166 134.876 207.072 147.728 205.978C164.955 204.611 178.626 203.791 195.033 215.822C196.947 217.189 197.494 219.923 195.853 221.837C194.486 223.752 191.752 224.298 189.838 222.658C176.166 212.541 163.861 213.361 148.276 214.455C134.604 215.549 119.018 216.642 98.2366 211.447C91.9475 212.541 51.7526 218.556 39.7206 217.462C36.9862 217.189 35.3456 217.189 33.4315 216.916C25.7753 216.369 20.5795 216.095 9.64248 211.994C5.54088 210.353 2.80658 208.713 1.71278 207.072C-0.74812 203.791 0.0721824 201.056 3.07998 198.869C4.44718 197.775 6.36119 197.228 8.82219 196.681C15.9316 195.041 28.2362 194.767 30.4242 195.041C38.3539 196.134 46.5572 196.955 54.7602 196.681C62.9633 196.681 71.1662 195.587 79.3692 193.127C82.1036 192.306 85.1114 191.486 88.1192 190.939C91.127 190.392 94.1348 190.119 97.4161 190.119C109.994 189.845 135.424 187.111 156.205 181.642C169.33 178.087 180.541 173.439 184.369 167.697L184.64 167.97Z" fill="black"/>
<path d="M286.36 200.23C283.899 200.777 281.711 199.41 281.164 196.949C280.618 194.488 281.985 192.3 284.446 191.753C292.375 189.839 301.126 175.894 309.876 162.222C315.891 152.652 322.181 143.081 328.47 136.792C326.009 118.472 326.009 96.5975 325.735 80.7375C325.735 75.2687 325.735 70.3465 325.462 66.7925C322.181 62.9644 312.884 50.6595 313.704 20.8545V20.0342C314.524 15.1123 316.712 11.2842 319.173 8.55018C322.454 4.72208 326.555 2.53458 330.111 1.16738C332.298 0.347065 334.759 1.44081 335.853 3.62827C336.126 4.17515 336.126 4.72208 336.126 5.54238C336.126 10.1908 335.579 13.4721 335.579 16.7534C334.759 26.5972 334.212 32.8864 341.595 42.7304C342.142 43.5507 342.415 44.0976 342.415 44.9179C342.962 53.3945 345.697 65.1519 348.978 77.1839C353.626 94.1369 359.916 112.184 364.564 125.036C366.751 130.505 362.923 143.903 356.908 158.942C347.884 181.637 333.939 209.528 328.197 220.739C335.306 233.317 330.111 252.184 326.009 266.95C325.189 270.231 324.095 273.512 323.548 275.973V276.247C322.728 280.075 321.361 284.723 319.994 289.645C316.165 303.59 311.517 320.543 312.611 329.293C314.798 349.254 310.97 362.105 306.048 378.785C305.228 381.246 304.408 383.98 303.587 386.988C301.4 393.824 299.212 400.66 297.298 408.043L296.478 417.066C296.204 419.527 295.111 421.715 293.743 423.629C292.103 425.269 289.915 426.637 287.454 426.91C286.908 426.91 284.447 427.183 281.712 427.183C274.603 427.73 264.212 428.277 260.384 428.824C258.47 429.097 256.283 429.097 253.548 428.551C251.361 428.004 248.626 427.183 245.892 426.09C244.525 425.543 243.705 424.722 243.158 423.902C242.337 422.535 242.337 421.441 242.337 420.621C242.337 420.074 242.337 418.98 242.884 418.16C243.431 417.066 244.251 415.973 245.892 415.426L277.064 403.121L281.712 358.277V358.003L281.986 354.995C283.08 344.057 284.994 329.292 284.72 329.018C284.72 328.745 281.439 313.432 280.072 295.659C279.252 286.636 278.978 276.792 279.525 267.768C279.525 266.948 278.978 266.128 278.158 265.307C276.791 263.667 275.423 262.847 274.603 262.573C272.416 261.753 271.048 259.292 271.869 257.104C272.689 254.917 275.15 253.55 277.338 254.37C278.978 254.917 282.533 256.831 284.72 259.839C286.361 262.026 287.728 264.487 288.002 267.768V268.315C287.455 277.065 287.728 286.635 288.548 295.385C289.916 312.612 292.923 327.104 293.197 327.651V329.292C293.197 333.94 291.556 346.792 290.462 356.636L290.189 359.644V359.917L285.267 405.581C285.267 406.948 284.72 408.042 283.9 409.136C283.08 410.23 281.986 411.05 280.892 411.597H280.619L256.83 421.167H258.744H259.017C263.392 420.347 274.056 419.8 281.165 419.253C283.626 418.979 285.814 418.979 286.36 418.979C286.634 418.979 287.181 418.706 287.181 418.433C287.454 418.159 287.728 417.612 287.728 417.065L288.548 408.042V407.495V406.948C290.462 399.565 292.65 392.182 294.837 385.346C295.657 382.612 296.478 379.877 297.298 377.143C301.946 361.284 305.501 349.252 303.587 330.932C302.493 320.541 307.415 302.494 311.243 288.002C312.61 283.08 313.704 278.432 314.524 274.877V274.604C315.345 271.596 316.165 268.315 316.985 265.033C321.634 248.353 327.923 225.658 312.063 218.822C309.876 218.002 308.782 215.268 309.876 213.08C310.696 210.893 313.431 209.799 315.618 210.893C317.806 211.713 319.72 213.08 321.36 214.174C327.649 201.869 339.954 176.713 348.157 156.205C353.353 142.807 356.907 131.596 355.814 128.314C350.892 115.189 344.603 96.8689 339.955 79.9159C336.673 67.6109 333.939 55.8539 333.119 47.1039C324.369 35.0729 325.189 27.6899 326.009 16.2059C326.009 15.3856 326.283 14.2918 326.283 13.4715C326.009 13.7449 325.462 14.2918 325.189 14.5653C323.548 16.4794 322.455 18.6669 321.634 21.9481C321.087 49.5651 329.837 59.6821 332.025 62.1431C332.846 63.2369 333.392 63.7837 333.666 65.4243C333.939 68.979 333.939 74.4477 333.939 81.0103C333.939 97.1433 334.213 119.838 336.947 137.885C337.22 139.252 336.674 140.62 335.58 141.713C329.564 147.182 323.275 157.025 316.713 167.143C306.869 182.455 297.299 197.768 286.088 200.502L286.36 200.23Z" fill="black"/>
<path d="M247.53 171.52C247.53 173.981 245.342 175.895 242.882 175.622C240.421 175.622 238.507 173.434 238.78 170.973C239.327 162.497 242.335 152.379 247.257 141.715C252.725 129.41 260.109 116.559 267.491 105.348C269.131 102.614 270.772 99.8794 272.412 97.1451C275.967 91.1295 278.975 85.3871 283.896 81.8331C288.545 78.5519 294.834 73.0831 301.396 65.9741C306.592 60.2319 311.787 53.3961 316.435 45.4661C317.529 43.2786 320.264 42.7317 322.451 43.8255C324.639 44.9193 325.185 47.6536 324.092 49.8411C319.17 58.3177 313.428 65.7001 307.959 71.7161C300.849 79.6458 294.014 85.3881 288.818 88.9431C285.536 91.1306 282.802 96.0525 279.794 101.248C278.154 104.256 276.513 106.99 274.599 109.998C267.216 120.936 260.38 133.24 255.185 144.998C250.81 154.842 248.076 164.139 247.529 171.248L247.53 171.52ZM313.155 28.51C314.796 26.8694 317.53 26.8694 319.444 28.51C321.085 30.1506 321.085 32.885 319.444 34.7991C312.061 41.9085 304.405 50.3851 297.296 58.0411C284.444 72.2601 274.327 84.8381 272.687 86.7521L259.015 106.713C252.453 116.283 243.429 123.393 234.406 130.229C226.203 136.792 217.726 143.081 211.984 151.557C210.617 153.471 207.882 154.018 205.968 152.651C204.054 151.284 203.508 148.549 204.875 146.635C211.437 137.065 220.461 130.229 229.211 123.393C237.687 116.831 245.891 110.268 251.906 101.791L265.578 81.8303C265.578 81.8303 265.578 81.5568 265.851 81.5568C266.945 80.463 277.882 67.0648 291.007 52.2988C298.116 44.3691 306.046 35.8928 313.429 28.5098L313.155 28.51Z" fill="black"/>
<path d="M197.77 220.2C207.887 226.763 219.372 233.052 230.309 238.52C245.348 245.903 260.114 252.192 271.325 256.293C274.606 248.637 276.52 239.887 277.888 231.137C279.802 217.465 279.528 204.067 279.255 196.137C277.341 196.41 275.427 196.41 273.513 196.684C266.677 196.957 259.294 196.137 253.552 193.403C246.989 190.395 242.068 185.2 240.7 176.997C240.7 176.45 240.426 175.63 240.426 175.083C239.332 173.989 237.965 172.895 236.598 171.255C230.856 165.239 221.012 155.122 208.707 153.208C207.066 157.036 204.879 160.59 202.418 163.599C200.504 166.059 198.316 167.974 195.855 169.614C196.402 170.434 196.949 171.255 197.496 172.075C201.598 178.638 204.059 187.387 204.332 196.137C204.605 204.887 202.691 213.637 198.59 219.653C198.316 219.926 198.043 220.2 198.043 220.473L197.77 220.2ZM226.481 246.177C213.356 239.615 199.958 232.232 188.473 224.302C187.926 224.029 187.379 223.482 187.106 222.935C185.739 221.021 186.286 218.286 188.473 216.919C189.567 216.099 190.661 215.279 191.481 214.185C194.489 209.81 195.856 202.974 195.582 196.138C195.309 189.028 193.395 181.646 190.114 176.45C189.02 174.536 187.653 173.169 186.012 172.075C185.192 171.528 184.645 170.981 184.371 170.161C183.551 167.973 184.645 165.512 186.832 164.419C190.114 163.051 193.121 160.864 195.582 157.856C198.043 154.848 199.957 151.294 201.325 147.192C201.871 145.278 203.512 143.911 205.7 144.184C222.927 144.731 235.505 157.856 242.614 165.239C244.528 167.153 245.895 168.794 246.442 168.794C247.809 169.614 248.903 170.981 248.903 172.622C248.903 173.716 249.176 174.536 249.176 175.63C249.996 180.552 253.278 183.833 257.106 185.747C261.754 187.934 267.497 188.481 273.239 188.208C276.247 188.208 279.528 187.661 282.262 187.114H283.082C285.543 186.841 287.457 188.755 287.731 191.216C288.278 198.051 289.098 215.005 286.637 232.778C285.27 243.442 282.535 254.653 277.887 263.95C277.067 266.137 274.606 267.231 272.418 266.41C260.66 262.309 243.98 255.472 226.754 246.996L226.481 246.177Z" fill="black"/>
<path d="M171.24 96.6C163.584 98.7875 157.295 102.889 153.193 108.631C149.638 113.553 148.271 119.569 149.912 126.131C149.912 126.404 149.912 126.404 150.185 126.678C152.373 134.608 157.021 141.717 162.763 146.092C168.232 150.193 174.247 152.381 179.99 151.014H180.263C185.732 149.647 189.287 145.272 191.201 139.256C193.662 132.146 193.662 123.397 191.475 114.647C189.561 107.264 187.647 101.522 184.366 98.5138C181.631 95.7794 177.53 94.9591 170.967 96.8732L171.24 96.6ZM146.084 103.436C151.279 96.3265 159.482 90.5839 169.053 88.1239C179.17 85.3895 185.733 87.0301 190.928 91.952C195.576 96.6004 198.037 103.436 200.225 112.186C202.686 122.303 202.686 133.241 199.678 141.717C196.67 150.194 190.928 156.756 182.725 158.944C182.178 159.217 182.451 158.944 182.451 158.944C174.248 161.132 165.224 158.397 157.842 152.382C150.733 146.913 144.717 138.163 141.983 128.32C141.983 128.046 141.983 127.773 141.71 127.499C139.522 118.476 141.436 109.726 146.358 102.89L146.084 103.436Z" fill="black"/>
</svg>
