<?xml version="1.0" encoding="utf-8"?>
<!-- Generator: Adobe Illustrator 26.0.0, SVG Export Plug-In . SVG Version: 6.00 Build 0)  -->
<svg version="1.1" id="Layer_1" xmlns="http://www.w3.org/2000/svg" xmlns:xlink="http://www.w3.org/1999/xlink" x="0px" y="0px"
	 viewBox="0 0 807.7 807.7" style="enable-background:new 0 0 807.7 807.7;" xml:space="preserve">
<style type="text/css">
	.st0{display:none;fill:#FFFFFF;}
	.st1{fill:#FFFFFF;}
	.st2{fill:#231F20;}
</style>
<image style="display:none;overflow:visible;enable-background:new    ;" width="255" height="247" xlink:href="54FE2573.png"  transform="matrix(1.0243 0 0 1.0243 325.747 264.6374)">
</image>
<circle class="st0" cx="403.9" cy="403.9" r="392.1"/>
<path class="st1" d="M565.4,50.1H242.3c-105.7,0-192.2,86.5-192.2,192.2v323.1c0,105.7,86.5,192.2,192.2,192.2h323.1
	c105.7,0,192.2-86.5,192.2-192.2V242.3C757.6,136.6,671.1,50.1,565.4,50.1z"/>
<path class="st2" d="M464.7,639.6v-66.9c0,0,50.2,0.1,71.4-0.4s68.5-4.7,84.2-44.5c15.2-38.7,8.9-98.2-74.1-133.3
	c-57-24-76.5-22.3-77.8-29.8c-1-5.6,13.1-2.7,27.8-1c14.3,1.6,53.8,9.6,86.7,23.4c98.5,41,110.1,102.3,110.1,149.1s-34,76.7-34,76.7
	s-31.3,26.6-75.2,26.6S464.7,639.6,464.7,639.6z"/>
<path class="st2" d="M447.9,116.5v523H266.6c0,0-80.2,3.5-126-40.2c-13.1-12.5-27-30.4-33.1-42.7c-17.1-34.8-15.9-63.9-15.9-79.5
	c0-38.7,16.6-88.1,47.5-126.4c34.1-42.2,70.5-62.3,98.5-77.8c50-27.6,110.3-37.8,117.4-38.4c7-0.6,9.4,4.7,4.2,7.8
	c-5.2,3.1-53.3,14.3-103.9,47.5c-48.1,31.5-69.3,54.9-93,97.6c-22.1,39.7-22.7,94-2.1,132.3c14.9,27.7,50.8,52.9,99.1,52.9
	c8.6,0,29.9,0,41.5,0c8.5,0,28.7,0,43.3,0c35.3,0,31.7-15.8,31.7-47.8c0-19.3,0-408.4,0-408.4L447.9,116.5L447.9,116.5z"/>
</svg>
