<svg width="1263" height="2044" viewBox="0 0 1263 2044" fill="none" xmlns="http://www.w3.org/2000/svg">
<g id="Group 6">
<path id="Vector 2" opacity="0.5" d="M313.531 4C314.636 4 315.531 3.10457 315.531 2C315.531 0.895431 314.636 0 313.531 0V4ZM313.531 0H163.29V4H313.531V0ZM165.316 310.606H1104.6V306.606H165.316V310.606ZM1104.6 619.406H473.16V623.406H1104.6V619.406ZM1259 465.006C1259 550.279 1189.87 619.406 1104.6 619.406V623.406C1192.08 623.406 1263 552.488 1263 465.006H1259ZM1104.6 310.606C1189.87 310.606 1259 379.733 1259 465.006H1263C1263 377.524 1192.08 306.606 1104.6 306.606V310.606ZM165.316 306.606C81.1942 306.606 13 238.412 13 154.29H9C9 240.621 78.985 310.606 165.316 310.606V306.606ZM163.29 0C78.078 0 9.00003 69.078 9 154.29L13 154.29C13 71.2872 80.2872 4 163.29 4V0Z" fill="#414141"/>
<path id="Vector 3" opacity="0.5" d="M473.16 621.406H163.29C79.1826 621.406 11 689.589 11 773.696V773.696V773.696C11 858.922 80.0896 928.012 165.316 928.012H1104.6C1190.98 928.012 1261 998.035 1261 1084.41V1084.41C1261 1170.79 1190.98 1240.81 1104.6 1240.81H473.16" stroke="#414141" stroke-width="4"/>
<path id="Vector 4" opacity="0.5" d="M0.333392 2033C0.333392 2038.89 5.10902 2043.67 11.0001 2043.67C16.8911 2043.67 21.6667 2038.89 21.6667 2033C21.6667 2027.11 16.8911 2022.33 11.0001 2022.33C5.10902 2022.33 0.333392 2027.11 0.333392 2033ZM473.16 1238.81H163.29V1242.81H473.16V1238.81ZM165.316 1549.42H1104.6V1545.42H165.316V1549.42ZM1104.6 1858.22H161V1862.22H1104.6V1858.22ZM9.00006 2010.22V2033H13.0001V2010.22H9.00006ZM161 1858.22C77.0528 1858.22 9.00006 1926.27 9.00006 2010.22H13.0001C13.0001 1928.48 79.2619 1862.22 161 1862.22V1858.22ZM1259 1703.82C1259 1789.09 1189.87 1858.22 1104.6 1858.22V1862.22C1192.08 1862.22 1263 1791.3 1263 1703.82H1259ZM1104.6 1549.42C1189.87 1549.42 1259 1618.55 1259 1703.82H1263C1263 1616.34 1192.08 1545.42 1104.6 1545.42V1549.42ZM165.316 1545.42C81.1942 1545.42 13 1477.22 13 1393.1H9C9 1479.43 78.985 1549.42 165.316 1549.42V1545.42ZM163.29 1238.81C78.078 1238.81 9.00003 1307.89 9 1393.1L13 1393.1C13 1310.1 80.2872 1242.81 163.29 1242.81V1238.81Z" fill="#414141"/>
</g>
</svg>
